<svg width="50" height="40" viewBox="0 0 50 40" fill="none" xmlns="http://www.w3.org/2000/svg">
<path d="M24.6136 12.6316L31.8182 19.2842V18.9474C31.8182 17.2723 31.0998 15.6659 29.8212 14.4814C28.5425 13.297 26.8083 12.6316 25 12.6316H24.6136ZM14.8409 14.3158L18.3636 17.5789C18.25 18.0211 18.1818 18.4632 18.1818 18.9474C18.1818 20.6224 18.9002 22.2289 20.1788 23.4133C21.4575 24.5977 23.1917 25.2632 25 25.2632C25.5 25.2632 26 25.2 26.4773 25.0947L30 28.3579C28.4773 29.0526 26.7955 29.4737 25 29.4737C21.9862 29.4737 19.0958 28.3647 16.9647 26.3906C14.8336 24.4165 13.6364 21.7391 13.6364 18.9474C13.6364 17.2842 14.0909 15.7263 14.8409 14.3158ZM2.27273 2.67368L7.45455 7.47368L8.47727 8.42105C4.72727 11.1579 1.77273 14.7368 0 18.9474C3.93182 28.1895 13.6364 34.7368 25 34.7368C28.5227 34.7368 31.8864 34.1053 34.9545 32.9684L35.9318 33.8526L42.5682 40L45.4545 37.3263L5.15909 0M25 8.42105C28.0138 8.42105 30.9042 9.53007 33.0353 11.5041C35.1664 13.4782 36.3636 16.1556 36.3636 18.9474C36.3636 20.2947 36.0682 21.6 35.5455 22.7789L42.2045 28.9474C45.6136 26.3158 48.3409 22.8632 50 18.9474C46.0682 9.70526 36.3636 3.15789 25 3.15789C21.8182 3.15789 18.7727 3.68421 15.9091 4.63158L20.8409 9.15789C22.1364 8.69474 23.5227 8.42105 25 8.42105Z" fill="white"/>
</svg>
