<svg width="54" height="54" viewBox="0 0 54 54" fill="none" xmlns="http://www.w3.org/2000/svg">
<path d="M52 52L39.9362 39.9362M39.9362 39.9362C41.9998 37.8727 43.6367 35.4229 44.7535 32.7267C45.8703 30.0306 46.4451 27.1408 46.4451 24.2225C46.4451 21.3042 45.8703 18.4145 44.7535 15.7183C43.6367 13.0222 41.9998 10.5724 39.9362 8.50883C37.8727 6.44528 35.4229 4.80838 32.7267 3.69159C30.0306 2.5748 27.1408 2 24.2225 2C21.3042 2 18.4145 2.5748 15.7183 3.69159C13.0222 4.80838 10.5724 6.44528 8.50883 8.50883C4.3413 12.6764 2 18.3288 2 24.2225C2 30.1163 4.3413 35.7687 8.50883 39.9362C12.6764 44.1038 18.3288 46.4451 24.2225 46.4451C30.1163 46.4451 35.7687 44.1038 39.9362 39.9362Z" stroke="#4F5164" stroke-width="4" stroke-linecap="round" stroke-linejoin="round"/>
</svg>
