<svg width="10" height="10" viewBox="0 0 10 10" fill="none" xmlns="http://www.w3.org/2000/svg">
<path fill-rule="evenodd" clip-rule="evenodd" d="M5 0C2.2385 0 0 2.2385 0 5C0 7.7615 2.2385 10 5 10C7.7615 10 10 7.7615 10 5C10 2.2385 7.7615 0 5 0ZM3.25 3.75C3.25 3.52019 3.29526 3.29262 3.38321 3.0803C3.47116 2.86798 3.60006 2.67507 3.76256 2.51256C3.92507 2.35006 4.11798 2.22116 4.3303 2.13321C4.54262 2.04527 4.77019 2 5 2C5.22981 2 5.45738 2.04527 5.6697 2.13321C5.88202 2.22116 6.07493 2.35006 6.23744 2.51256C6.39994 2.67507 6.52884 2.86798 6.61679 3.0803C6.70474 3.29262 6.75 3.52019 6.75 3.75C6.75 4.21413 6.56563 4.65925 6.23744 4.98744C5.90925 5.31563 5.46413 5.5 5 5.5C4.53587 5.5 4.09075 5.31563 3.76256 4.98744C3.43437 4.65925 3.25 4.21413 3.25 3.75ZM8.129 7.492C7.75472 7.96281 7.2789 8.34298 6.73708 8.6041C6.19527 8.86523 5.60146 9.00056 5 9C4.39854 9.00056 3.80473 8.86523 3.26292 8.6041C2.7211 8.34298 2.24528 7.96281 1.871 7.492C2.6815 6.9105 3.7875 6.5 5 6.5C6.2125 6.5 7.3185 6.9105 8.129 7.492Z" fill="#A6AAB6"/>
</svg>
